<svg xmlns="http://www.w3.org/2000/svg" width="193.59" height="35" viewBox="0 0 193.59 35"><rect class="svg__rect" x="0" y="0" width="34.78" height="35" fill="#3949AB"/><rect class="svg__rect" x="32.78" y="0" width="160.81" height="35" fill="#283593"/><path class="svg__text" d="M13.95 18.19L13.95 18.19L13.95 17.39Q13.95 16.19 14.38 15.27Q14.80 14.35 15.60 13.85Q16.40 13.35 17.45 13.35L17.45 13.35Q18.86 13.35 19.73 14.12Q20.59 14.89 20.73 16.29L20.73 16.29L19.25 16.29Q19.14 15.37 18.71 14.96Q18.28 14.55 17.45 14.55L17.45 14.55Q16.48 14.55 15.97 15.26Q15.45 15.96 15.44 17.33L15.44 17.33L15.44 18.09Q15.44 19.47 15.93 20.20Q16.43 20.92 17.38 20.92L17.38 20.92Q18.25 20.92 18.69 20.53Q19.13 20.14 19.25 19.22L19.25 19.22L20.73 19.22Q20.60 20.59 19.72 21.35Q18.84 22.12 17.38 22.12L17.38 22.12Q16.36 22.12 15.59 21.63Q14.81 21.15 14.39 20.26Q13.97 19.37 13.95 18.19Z" fill="#FFFFFF"/><path class="svg__text" d="M49.35 22L46.97 22L46.97 13.60L50.81 13.60Q51.95 13.60 52.79 13.98Q53.63 14.35 54.09 15.06Q54.54 15.76 54.54 16.71L54.54 16.71Q54.54 17.66 54.09 18.35Q53.63 19.05 52.79 19.42Q51.95 19.80 50.81 19.80L50.81 19.80L49.35 19.80L49.35 22ZM49.35 15.47L49.35 17.93L50.67 17.93Q51.40 17.93 51.77 17.61Q52.14 17.29 52.14 16.71L52.14 16.71Q52.14 16.12 51.77 15.80Q51.40 15.47 50.67 15.47L50.67 15.47L49.35 15.47ZM61.67 22L59.30 22L59.30 13.60L63.14 13.60Q64.28 13.60 65.12 13.98Q65.96 14.35 66.42 15.06Q66.87 15.76 66.87 16.71L66.87 16.71Q66.87 17.62 66.44 18.30Q66.02 18.98 65.23 19.36L65.23 19.36L67.04 22L64.49 22L62.97 19.77L61.67 19.77L61.67 22ZM61.67 15.47L61.67 17.93L62.99 17.93Q63.73 17.93 64.10 17.61Q64.47 17.29 64.47 16.71L64.47 16.71Q64.47 16.12 64.10 15.79Q63.73 15.47 62.99 15.47L62.99 15.47L61.67 15.47ZM71.23 17.80L71.23 17.80Q71.23 16.55 71.84 15.55Q72.44 14.56 73.50 14.00Q74.57 13.43 75.90 13.43L75.90 13.43Q77.23 13.43 78.29 14.00Q79.35 14.56 79.96 15.55Q80.57 16.55 80.57 17.80L80.57 17.80Q80.57 19.05 79.96 20.04Q79.35 21.04 78.29 21.60Q77.23 22.17 75.90 22.17L75.90 22.17Q74.57 22.17 73.50 21.60Q72.44 21.04 71.84 20.04Q71.23 19.05 71.23 17.80ZM73.63 17.80L73.63 17.80Q73.63 18.51 73.93 19.05Q74.23 19.60 74.75 19.90Q75.26 20.20 75.90 20.20L75.90 20.20Q76.53 20.20 77.05 19.90Q77.57 19.60 77.86 19.05Q78.16 18.51 78.16 17.80L78.16 17.80Q78.16 17.09 77.86 16.54Q77.57 16 77.05 15.70Q76.53 15.40 75.90 15.40L75.90 15.40Q75.26 15.40 74.74 15.70Q74.23 16 73.93 16.54Q73.63 17.09 73.63 17.80ZM84.87 17.80L84.87 17.80Q84.87 16.54 85.46 15.54Q86.06 14.55 87.13 13.99Q88.20 13.43 89.54 13.43L89.54 13.43Q90.72 13.43 91.66 13.83Q92.59 14.22 93.22 14.97L93.22 14.97L91.70 16.33Q90.86 15.40 89.68 15.40L89.68 15.40Q89.67 15.40 89.67 15.40L89.67 15.40Q88.59 15.40 87.92 16.06Q87.26 16.71 87.26 17.80L87.26 17.80Q87.26 18.50 87.56 19.04Q87.87 19.59 88.41 19.89Q88.94 20.20 89.64 20.20L89.64 20.20Q90.33 20.20 90.92 19.93L90.92 19.93L90.92 17.62L93.02 17.62L93.02 21.10Q92.30 21.61 91.37 21.89Q90.43 22.17 89.50 22.17L89.50 22.17Q88.18 22.17 87.12 21.61Q86.06 21.05 85.46 20.05Q84.87 19.06 84.87 17.80ZM100.39 22L98.01 22L98.01 13.60L101.86 13.60Q103.00 13.60 103.84 13.98Q104.68 14.35 105.13 15.06Q105.59 15.76 105.59 16.71L105.59 16.71Q105.59 17.62 105.16 18.30Q104.74 18.98 103.94 19.36L103.94 19.36L105.75 22L103.21 22L101.69 19.77L100.39 19.77L100.39 22ZM100.39 15.47L100.39 17.93L101.71 17.93Q102.44 17.93 102.82 17.61Q103.19 17.29 103.19 16.71L103.19 16.71Q103.19 16.12 102.82 15.79Q102.44 15.47 101.71 15.47L101.71 15.47L100.39 15.47ZM111.80 22L109.37 22L113.08 13.60L115.42 13.60L119.14 22L116.67 22L116.01 20.37L112.46 20.37L111.80 22ZM114.23 15.93L113.15 18.61L115.31 18.61L114.23 15.93ZM125.49 22L123.29 22L123.29 13.60L125.25 13.60L128.20 18.45L131.09 13.60L133.04 13.60L133.06 22L130.88 22L130.86 17.55L128.69 21.17L127.64 21.17L125.49 17.67L125.49 22ZM140.42 22L138.22 22L138.22 13.60L140.18 13.60L143.13 18.45L146.01 13.60L147.97 13.60L147.99 22L145.81 22L145.79 17.55L143.62 21.17L142.57 21.17L140.42 17.67L140.42 22ZM155.53 22L153.15 22L153.15 13.60L155.53 13.60L155.53 22ZM163.04 22L160.70 22L160.70 13.60L162.66 13.60L166.37 18.07L166.37 13.60L168.70 13.60L168.70 22L166.75 22L163.04 17.52L163.04 22ZM173.43 17.80L173.43 17.80Q173.43 16.54 174.03 15.54Q174.63 14.55 175.70 13.99Q176.76 13.43 178.11 13.43L178.11 13.43Q179.28 13.43 180.22 13.83Q181.16 14.22 181.78 14.97L181.78 14.97L180.27 16.33Q179.42 15.40 178.25 15.40L178.25 15.40Q178.24 15.40 178.23 15.40L178.23 15.40Q177.15 15.40 176.49 16.06Q175.83 16.71 175.83 17.80L175.83 17.80Q175.83 18.50 176.13 19.04Q176.43 19.59 176.97 19.89Q177.51 20.20 178.21 20.20L178.21 20.20Q178.89 20.20 179.49 19.93L179.49 19.93L179.49 17.62L181.59 17.62L181.59 21.10Q180.87 21.61 179.93 21.89Q179.00 22.17 178.06 22.17L178.06 22.17Q176.74 22.17 175.68 21.61Q174.63 21.05 174.03 20.05Q173.43 19.06 173.43 17.80Z" fill="#FFFFFF" x="45.78"/></svg>